<?xml version="1.0" encoding="utf-8"?>
<svg version="1.1" xmlns:xlink="http://www.w3.org/1999/xlink" width="85px" height="85px" xmlns="http://www.w3.org/2000/svg">
  <g transform="matrix(1 0 0 1 -415 -1376 )">
    <path d="M 457.5 1376  C 481.3 1376  500 1394.7  500 1418.5  C 500 1442.3  481.3 1461  457.5 1461  C 433.7 1461  415 1442.3  415 1418.5  C 415 1394.7  433.7 1376  457.5 1376  Z " fill-rule="nonzero" fill="#ffffff" stroke="none" />
    <path d="M 457.5 1376.5  C 481.02 1376.5  499.5 1394.98  499.5 1418.5  C 499.5 1442.02  481.02 1460.5  457.5 1460.5  C 433.98 1460.5  415.5 1442.02  415.5 1418.5  C 415.5 1394.98  433.98 1376.5  457.5 1376.5  Z " stroke-width="1" stroke="#d7d7d7" fill="none" />
  </g>
</svg>