<?xml version="1.0" encoding="utf-8"?>
<svg version="1.1" xmlns:xlink="http://www.w3.org/1999/xlink" width="55px" height="55px" xmlns="http://www.w3.org/2000/svg">
  <g transform="matrix(1 0 0 1 -442 -2511 )">
    <path d="M 469.5 2511  C 484.9 2511  497 2523.1  497 2538.5  C 497 2553.9  484.9 2566  469.5 2566  C 454.1 2566  442 2553.9  442 2538.5  C 442 2523.1  454.1 2511  469.5 2511  Z " fill-rule="nonzero" fill="#ffffff" stroke="none" />
    <path d="M 469.5 2511.5  C 484.62 2511.5  496.5 2523.38  496.5 2538.5  C 496.5 2553.62  484.62 2565.5  469.5 2565.5  C 454.38 2565.5  442.5 2553.62  442.5 2538.5  C 442.5 2523.38  454.38 2511.5  469.5 2511.5  Z " stroke-width="1" stroke="#d7d7d7" fill="none" />
  </g>
</svg>