<?xml version="1.0" encoding="utf-8"?>
<svg version="1.1" xmlns:xlink="http://www.w3.org/1999/xlink" width="12px" height="12px" viewBox="1500 339.5  12 12" xmlns="http://www.w3.org/2000/svg">
  <path d="M 1506 339.5  C 1509.36 339.5  1512 342.14  1512 345.5  C 1512 348.86  1509.36 351.5  1506 351.5  C 1502.64 351.5  1500 348.86  1500 345.5  C 1500 342.14  1502.64 339.5  1506 339.5  Z " fill-rule="nonzero" fill="#f0f0f0" stroke="none" />
  <path d="M 1506 340  C 1509.08 340  1511.5 342.42  1511.5 345.5  C 1511.5 348.58  1509.08 351  1506 351  C 1502.92 351  1500.5 348.58  1500.5 345.5  C 1500.5 342.42  1502.92 340  1506 340  Z " stroke-width="1" stroke="#797979" fill="none" />
  <path d="M 1506 348.5  C 1504.32 348.5  1503 347.18  1503 345.5  C 1503 343.82  1504.32 342.5  1506 342.5  C 1507.68 342.5  1509 343.82  1509 345.5  C 1509 347.18  1507.68 348.5  1506 348.5  " fill-rule="nonzero" fill="#797979" stroke="none" />
</svg>