<?xml version="1.0" encoding="utf-8"?>
<svg version="1.1" xmlns:xlink="http://www.w3.org/1999/xlink" width="12px" height="12px" viewBox="1574 511.5  12 12" xmlns="http://www.w3.org/2000/svg">
  <path d="M 1580 511.5  C 1583.36 511.5  1586 514.14  1586 517.5  C 1586 520.86  1583.36 523.5  1580 523.5  C 1576.64 523.5  1574 520.86  1574 517.5  C 1574 514.14  1576.64 511.5  1580 511.5  Z " fill-rule="nonzero" fill="#ffffff" stroke="none" />
  <path d="M 1580 512  C 1583.08 512  1585.5 514.42  1585.5 517.5  C 1585.5 520.58  1583.08 523  1580 523  C 1576.92 523  1574.5 520.58  1574.5 517.5  C 1574.5 514.42  1576.92 512  1580 512  Z " stroke-width="1" stroke="#797979" fill="none" />
  <path d="M 1580 520.5  C 1578.32 520.5  1577 519.18  1577 517.5  C 1577 515.82  1578.32 514.5  1580 514.5  C 1581.68 514.5  1583 515.82  1583 517.5  C 1583 519.18  1581.68 520.5  1580 520.5  " fill-rule="nonzero" fill="#797979" stroke="none" />
</svg>