<?xml version="1.0" encoding="utf-8"?>
<svg version="1.1" xmlns:xlink="http://www.w3.org/1999/xlink" width="12px" height="12px" viewBox="1733 511.5  12 12" xmlns="http://www.w3.org/2000/svg">
  <path d="M 1739 511.5  C 1742.36 511.5  1745 514.14  1745 517.5  C 1745 520.86  1742.36 523.5  1739 523.5  C 1735.64 523.5  1733 520.86  1733 517.5  C 1733 514.14  1735.64 511.5  1739 511.5  Z " fill-rule="nonzero" fill="#f0f0f0" stroke="none" />
  <path d="M 1739 512  C 1742.08 512  1744.5 514.42  1744.5 517.5  C 1744.5 520.58  1742.08 523  1739 523  C 1735.92 523  1733.5 520.58  1733.5 517.5  C 1733.5 514.42  1735.92 512  1739 512  Z " stroke-width="1" stroke="#797979" fill="none" />
  <path d="M 1739 520.5  C 1737.32 520.5  1736 519.18  1736 517.5  C 1736 515.82  1737.32 514.5  1739 514.5  C 1740.68 514.5  1742 515.82  1742 517.5  C 1742 519.18  1740.68 520.5  1739 520.5  " fill-rule="nonzero" fill="#797979" stroke="none" />
</svg>