<?xml version="1.0" encoding="utf-8"?>
<svg version="1.1" xmlns:xlink="http://www.w3.org/1999/xlink" width="12px" height="12px" viewBox="739 511.5  12 12" xmlns="http://www.w3.org/2000/svg">
  <path d="M 745 511.5  C 748.36 511.5  751 514.14  751 517.5  C 751 520.86  748.36 523.5  745 523.5  C 741.64 523.5  739 520.86  739 517.5  C 739 514.14  741.64 511.5  745 511.5  Z " fill-rule="nonzero" fill="#ffffff" stroke="none" />
  <path d="M 745 512  C 748.08 512  750.5 514.42  750.5 517.5  C 750.5 520.58  748.08 523  745 523  C 741.92 523  739.5 520.58  739.5 517.5  C 739.5 514.42  741.92 512  745 512  Z " stroke-width="1" stroke="#797979" fill="none" />
  <path d="M 745 520.5  C 743.32 520.5  742 519.18  742 517.5  C 742 515.82  743.32 514.5  745 514.5  C 746.68 514.5  748 515.82  748 517.5  C 748 519.18  746.68 520.5  745 520.5  " fill-rule="nonzero" fill="#797979" stroke="none" />
</svg>