<?xml version="1.0" encoding="utf-8"?>
<svg version="1.1" xmlns:xlink="http://www.w3.org/1999/xlink" width="12px" height="12px" viewBox="898 511.5  12 12" xmlns="http://www.w3.org/2000/svg">
  <path d="M 904 511.5  C 907.36 511.5  910 514.14  910 517.5  C 910 520.86  907.36 523.5  904 523.5  C 900.64 523.5  898 520.86  898 517.5  C 898 514.14  900.64 511.5  904 511.5  Z " fill-rule="nonzero" fill="#ffffff" stroke="none" />
  <path d="M 904 512  C 907.08 512  909.5 514.42  909.5 517.5  C 909.5 520.58  907.08 523  904 523  C 900.92 523  898.5 520.58  898.5 517.5  C 898.5 514.42  900.92 512  904 512  Z " stroke-width="1" stroke="#797979" fill="none" />
  <path d="M 904 520.5  C 902.32 520.5  901 519.18  901 517.5  C 901 515.82  902.32 514.5  904 514.5  C 905.68 514.5  907 515.82  907 517.5  C 907 519.18  905.68 520.5  904 520.5  " fill-rule="nonzero" fill="#797979" stroke="none" />
</svg>