<?xml version="1.0" encoding="utf-8"?>
<svg version="1.1" xmlns:xlink="http://www.w3.org/1999/xlink" width="161px" height="225px" xmlns="http://www.w3.org/2000/svg">
  <g transform="matrix(1 0 0 1 -1361 -316 )">
    <path d="M 1361 316  L 1522 316  L 1522 541  L 1361 541  L 1361 316  " fill-rule="nonzero" fill="#cccccc" stroke="none" />
    <path d="M 1372 327  L 1511 327  L 1511 530  L 1372 530  L 1372 327  " fill-rule="nonzero" fill="#ffffff" stroke="none" />
    <path d="M 1456.795 373.9  C 1450.033 373.9  1444.72 368.587  1444.72 361.825  C 1444.72 355.063  1450.033 349.75  1456.795 349.75  C 1463.557 349.75  1468.87 355.063  1468.87 361.825  C 1468.87 368.587  1463.557 373.9  1456.795 373.9  " fill-rule="nonzero" fill="#cccccc" stroke="none" />
    <path d="M 1376 526  L 1376 418.75  L 1408.75 370  L 1454.6 409  L 1480.8 399.25  L 1507 409  L 1507 526  L 1376 526  " fill-rule="nonzero" fill="#169bd5" stroke="none" />
  </g>
</svg>