<?xml version="1.0" encoding="utf-8"?>
<svg version="1.1" xmlns:xlink="http://www.w3.org/1999/xlink" width="114px" height="88px" xmlns="http://www.w3.org/2000/svg">
  <g transform="matrix(1 0 0 1 -199 -435 )">
    <path d="M 199 435  L 313 435  L 313 523  L 199 523  L 199 435  " fill-rule="nonzero" fill="#cccccc" stroke="none" />
    <path d="M 205 441  L 307 441  L 307 517  L 205 517  L 205 441  " fill-rule="nonzero" fill="#ffffff" stroke="none" />
    <path d="M 264.88 461.4  C 261.184 461.4  258.28 458.496  258.28 454.8  C 258.28 451.104  261.184 448.2  264.88 448.2  C 268.576 448.2  271.48 451.104  271.48 454.8  C 271.48 458.496  268.576 461.4  264.88 461.4  " fill-rule="nonzero" fill="#cccccc" stroke="none" />
    <path d="M 207 515  L 207 475.4  L 231.5 457.4  L 265.8 481.652631578947  L 285.4 468.2  L 305 481.652631578947  L 305 515  L 207 515  " fill-rule="nonzero" fill="#169bd5" stroke="none" />
  </g>
</svg>