<?xml version="1.0" encoding="utf-8"?>
<svg version="1.1" xmlns:xlink="http://www.w3.org/1999/xlink" width="355px" height="186px" xmlns="http://www.w3.org/2000/svg">
  <g transform="matrix(1 0 0 1 -168 -170 )">
    <path d="M 168 170  L 523 170  L 523 356  L 168 356  L 168 170  " fill-rule="nonzero" fill="#cccccc" stroke="none" />
    <path d="M 181 183  L 510 183  L 510 343  L 181 343  L 181 183  " fill-rule="nonzero" fill="#ffffff" stroke="none" />
    <path d="M 366.55 225.8  C 358.738 225.8  352.6 219.662  352.6 211.85  C 352.6 204.038  358.738 197.9  366.55 197.9  C 374.362 197.9  380.5 204.038  380.5 211.85  C 380.5 219.662  374.362 225.8  366.55 225.8  " fill-rule="nonzero" fill="#cccccc" stroke="none" />
    <path d="M 186 339  L 186 255.95  L 266 218.2  L 378 291.530704225352  L 442 240.85  L 506 291.530704225352  L 506 339  L 186 339  " fill-rule="nonzero" fill="#169bd5" stroke="none" />
  </g>
</svg>