<?xml version="1.0" encoding="utf-8"?>
<svg version="1.1" xmlns:xlink="http://www.w3.org/1999/xlink" width="12px" height="12px" viewBox="552 1171.5  12 12" xmlns="http://www.w3.org/2000/svg">
  <path d="M 558 1171.5  C 561.36 1171.5  564 1174.14  564 1177.5  C 564 1180.86  561.36 1183.5  558 1183.5  C 554.64 1183.5  552 1180.86  552 1177.5  C 552 1174.14  554.64 1171.5  558 1171.5  Z " fill-rule="nonzero" fill="#ffffff" stroke="none" />
  <path d="M 558 1172  C 561.08 1172  563.5 1174.42  563.5 1177.5  C 563.5 1180.58  561.08 1183  558 1183  C 554.92 1183  552.5 1180.58  552.5 1177.5  C 552.5 1174.42  554.92 1172  558 1172  Z " stroke-width="1" stroke="#797979" fill="none" />
  <path d="M 558 1180.5  C 556.32 1180.5  555 1179.18  555 1177.5  C 555 1175.82  556.32 1174.5  558 1174.5  C 559.68 1174.5  561 1175.82  561 1177.5  C 561 1179.18  559.68 1180.5  558 1180.5  " fill-rule="nonzero" fill="#797979" stroke="none" />
</svg>