<?xml version="1.0" encoding="utf-8"?>
<svg version="1.1" xmlns:xlink="http://www.w3.org/1999/xlink" width="16px" height="16px" xmlns="http://www.w3.org/2000/svg">
  <g transform="matrix(1 0 0 1 -388 -256 )">
    <path d="M 16 8  C 16 12.41828  12.4182 16  8 16  C 3.58172 16  0 12.4182  0 8  C 0 3.5818  3.58172 0  8 0  C 12.41828 0  16 3.58172  16 8  Z M 14.56 8  C 14.56 4.377  11.623 1.44  8 1.44  C 4.37702 1.44  1.44 4.37702  1.44 8  C 1.44 11.62298  4.37702 14.56  8 14.56  C 11.62298 14.56  14.56 11.623  14.56 8  Z " fill-rule="nonzero" fill="#333333" stroke="none" transform="matrix(1 0 0 1 388 256 )" />
  </g>
</svg>