<?xml version="1.0" encoding="utf-8"?>
<svg version="1.1" xmlns:xlink="http://www.w3.org/1999/xlink" width="116px" height="88px" xmlns="http://www.w3.org/2000/svg">
  <g transform="matrix(1 0 0 1 -347 -407 )">
    <path d="M 347 407  L 463 407  L 463 495  L 347 495  L 347 407  " fill-rule="nonzero" fill="#cccccc" stroke="none" />
    <path d="M 353 413  L 457 413  L 457 489  L 353 489  L 353 413  " fill-rule="nonzero" fill="#ffffff" stroke="none" />
    <path d="M 413.92 433.4  C 410.224 433.4  407.32 430.496  407.32 426.8  C 407.32 423.104  410.224 420.2  413.92 420.2  C 417.616 420.2  420.52 423.104  420.52 426.8  C 420.52 430.496  417.616 433.4  413.92 433.4  " fill-rule="nonzero" fill="#cccccc" stroke="none" />
    <path d="M 355 487  L 355 447.4  L 380 429.4  L 415 454.227586206897  L 435 440.2  L 455 454.227586206897  L 455 487  L 355 487  " fill-rule="nonzero" fill="#169bd5" stroke="none" />
  </g>
</svg>