<?xml version="1.0" encoding="utf-8"?>
<svg version="1.1" xmlns:xlink="http://www.w3.org/1999/xlink" width="16px" height="16px" xmlns="http://www.w3.org/2000/svg">
  <g transform="matrix(1 0 0 1 -272 -443 )">
    <path d="M 16 8.64  C 16 8.72836555997293  15.9283655599729 8.8  15.84 8.8  L 8.8 8.8  L 8.8 15.84  C 8.8 15.9283655599729  8.72836555997293 16  8.64 16  L 7.36 16  C 7.27163444002707 16  7.2 15.9283655599729  7.2 15.84  L 7.2 8.8  L 0.159999999999997 8.8  C 0.0716344400270685 8.8  0 8.72836555997293  0 8.64  L 0 7.36  C 0 7.27163444002707  0.0716344400270685 7.2  0.159999999999997 7.2  L 7.2 7.2  L 7.2 0.159999999999997  C 7.2 0.0716344400270756  7.27163444002707 0  7.36 0  L 8.64 0  C 8.72836555997293 0  8.8 0.0716344400270756  8.8 0.159999999999997  L 8.8 7.2  L 15.84 7.2  C 15.9283655599729 7.2  16 7.27163444002707  16 7.36  L 16 8.64  Z " fill-rule="nonzero" fill="#333333" stroke="none" transform="matrix(1 0 0 1 272 443 )" />
  </g>
</svg>