<?xml version="1.0" encoding="utf-8"?>
<svg version="1.1" xmlns:xlink="http://www.w3.org/1999/xlink" width="12px" height="12px" viewBox="1209 1111  12 12" xmlns="http://www.w3.org/2000/svg">
  <path d="M 1215 1111  C 1218.36 1111  1221 1113.64  1221 1117  C 1221 1120.36  1218.36 1123  1215 1123  C 1211.64 1123  1209 1120.36  1209 1117  C 1209 1113.64  1211.64 1111  1215 1111  Z " fill-rule="nonzero" fill="#f0f0f0" stroke="none" />
  <path d="M 1215 1111.5  C 1218.08 1111.5  1220.5 1113.92  1220.5 1117  C 1220.5 1120.08  1218.08 1122.5  1215 1122.5  C 1211.92 1122.5  1209.5 1120.08  1209.5 1117  C 1209.5 1113.92  1211.92 1111.5  1215 1111.5  Z " stroke-width="1" stroke="#797979" fill="none" />
  <path d="M 1215 1120  C 1213.32 1120  1212 1118.68  1212 1117  C 1212 1115.32  1213.32 1114  1215 1114  C 1216.68 1114  1218 1115.32  1218 1117  C 1218 1118.68  1216.68 1120  1215 1120  " fill-rule="nonzero" fill="#797979" stroke="none" />
</svg>