<?xml version="1.0" encoding="utf-8"?>
<svg version="1.1" xmlns:xlink="http://www.w3.org/1999/xlink" width="12px" height="12px" viewBox="1319 1111  12 12" xmlns="http://www.w3.org/2000/svg">
  <path d="M 1325 1111  C 1328.36 1111  1331 1113.64  1331 1117  C 1331 1120.36  1328.36 1123  1325 1123  C 1321.64 1123  1319 1120.36  1319 1117  C 1319 1113.64  1321.64 1111  1325 1111  Z " fill-rule="nonzero" fill="#ffffff" stroke="none" />
  <path d="M 1325 1111.5  C 1328.08 1111.5  1330.5 1113.92  1330.5 1117  C 1330.5 1120.08  1328.08 1122.5  1325 1122.5  C 1321.92 1122.5  1319.5 1120.08  1319.5 1117  C 1319.5 1113.92  1321.92 1111.5  1325 1111.5  Z " stroke-width="1" stroke="#797979" fill="none" />
  <path d="M 1325 1120  C 1323.32 1120  1322 1118.68  1322 1117  C 1322 1115.32  1323.32 1114  1325 1114  C 1326.68 1114  1328 1115.32  1328 1117  C 1328 1118.68  1326.68 1120  1325 1120  " fill-rule="nonzero" fill="#797979" stroke="none" />
</svg>