<?xml version="1.0" encoding="utf-8"?>
<svg version="1.1" xmlns:xlink="http://www.w3.org/1999/xlink" width="12px" height="12px" viewBox="1319 1257  12 12" xmlns="http://www.w3.org/2000/svg">
  <path d="M 1325 1257  C 1328.36 1257  1331 1259.64  1331 1263  C 1331 1266.36  1328.36 1269  1325 1269  C 1321.64 1269  1319 1266.36  1319 1263  C 1319 1259.64  1321.64 1257  1325 1257  Z " fill-rule="nonzero" fill="#ffffff" stroke="none" />
  <path d="M 1325 1257.5  C 1328.08 1257.5  1330.5 1259.92  1330.5 1263  C 1330.5 1266.08  1328.08 1268.5  1325 1268.5  C 1321.92 1268.5  1319.5 1266.08  1319.5 1263  C 1319.5 1259.92  1321.92 1257.5  1325 1257.5  Z " stroke-width="1" stroke="#797979" fill="none" />
  <path d="M 1325 1266  C 1323.32 1266  1322 1264.68  1322 1263  C 1322 1261.32  1323.32 1260  1325 1260  C 1326.68 1260  1328 1261.32  1328 1263  C 1328 1264.68  1326.68 1266  1325 1266  " fill-rule="nonzero" fill="#797979" stroke="none" />
</svg>